name X:\Health\ResearchProjects\ASalo\Sprinting 2016\NHaralabidis\Running_implicit_muscleDriven\Running_implicit_muscleDriven\Study2\ExperimentalData\IK_Splined\twoSteps_IK_BSplines_60_meshInts_study2_p02_s_01_lowIK_modROI.mot
datacolumns 38
datarows 11
range 0.65500000 0.67421996
endheader
                time	         pelvis_tilt	         pelvis_list	     pelvis_rotation	           pelvis_tx	           pelvis_ty	           pelvis_tz	       hip_flexion_r	     hip_adduction_r	      hip_rotation_r	        knee_angle_r	       ankle_angle_r	    subtalar_angle_r	         mtp_angle_r	       hip_flexion_l	     hip_adduction_l	      hip_rotation_l	        knee_angle_l	       ankle_angle_l	    subtalar_angle_l	         mtp_angle_l	    lumbar_extension	      lumbar_bending	     lumbar_rotation	          arm_flex_r	           arm_add_r	           arm_rot_r	        elbow_flex_r	           pro_sup_r	        wrist_flex_r	         wrist_dev_r	          arm_flex_l	           arm_add_l	           arm_rot_l	        elbow_flex_l	           pro_sup_l	        wrist_flex_l	         wrist_dev_l	
          0.65500000	        -17.54257204	          3.79095304	          9.31634030	          0.30819270	          0.89322571	          0.34009555	         30.45905197	         -9.43506688	        -15.83679923	       -111.17868974	        -15.02526739	        -31.67367243	         -8.98863520	         30.90198485	          6.11167937	         -0.19825176	        -50.45174052	         21.97833846	         -8.83405426	          6.04580484	        -27.97345466	         -9.11390610	         -2.15682978	        -29.71769114	        -10.28508081	        -16.18613616	         49.54863050	         76.52711223	        -27.13736305	         30.25815510	         -2.32053721	        -11.81396833	         -7.83302305	         69.06882482	         69.39395767	          4.66976244	         19.81672321	
          0.65612670	        -17.59249239	          3.68312559	          9.63280887	          0.31398700	          0.89290983	          0.33971609	         31.23043973	         -9.53305457	        -15.97488077	       -111.75067037	        -14.57670017	        -31.62680917	         -8.88453341	         30.49831495	          6.08375475	          0.03254797	        -50.29223759	         22.01491737	         -8.84611840	          6.21839194	        -27.89687125	         -8.78417958	         -2.21433803	        -30.37844160	        -10.13232319	        -16.39370940	         48.85428339	         76.69178477	        -27.08120962	         30.47232102	         -1.48825302	        -11.61257334	         -7.53360973	         69.65744669	         69.24726641	          4.67371517	         19.76118230	
          0.65968663	        -17.75022033	          3.34243488	         10.63272039	          0.33229459	          0.89191178	          0.33851715	         33.66771015	         -9.84265569	        -16.41116207	       -113.55789569	        -13.15941086	        -31.47874040	         -8.55561423	         29.22288284	          5.99552433	          0.76178091	        -49.78827343	         22.13049182	         -8.88423613	          6.76369673	        -27.65489893	         -7.74237838	         -2.39604061	        -32.46614336	         -9.64967146	        -17.04955610	         46.66042996	         77.21208278	        -26.90378772	         31.14899792	          1.14142527	        -10.97624736	         -6.58758584	         71.51725150	         68.78378193	          4.68620416	         19.58569569	
          0.66226667	        -17.81791137	          3.03583943	         11.45263024	          0.34542904	          0.89124931	          0.33760471	         35.42085937	        -10.13671160	        -16.76681599	       -114.66710273	        -12.15161875	        -31.34659067	         -8.32507704	         28.28035905	          5.83340477	          1.41257971	        -49.39052280	         22.10915177	         -8.80115997	          7.25757428	        -27.47868088	         -6.85447961	         -2.68249833	        -34.15832289	         -9.16283897	        -17.96148333	         45.97029931	         77.51775517	        -26.72484681	         31.54244236	          2.92776923	        -10.47366757	         -5.94747185	         73.17590752	         68.20265781	          4.67260473	         19.51332005	
          0.66226667	        -17.81791137	          3.03583943	         11.45263024	          0.34542904	          0.89124931	          0.33760471	         35.42085937	        -10.13671160	        -16.76681599	       -114.66710273	        -12.15161875	        -31.34659067	         -8.32507704	         28.28035905	          5.83340477	          1.41257971	        -49.39052280	         22.10915177	         -8.80115997	          7.25757428	        -27.47868088	         -6.85447961	         -2.68249833	        -34.15832289	         -9.16283897	        -17.96148333	         45.97029931	         77.51775517	        -26.72484681	         31.54244236	          2.92776923	        -10.47366757	         -5.94747185	         73.17590752	         68.20265781	          4.67260473	         19.51332005	
          0.66339337	        -17.84630871	          2.90045972	         11.81306174	          0.35116152	          0.89096152	          0.33720516	         36.18613020	        -10.26686464	        -16.92311500	       -115.14648926	        -11.71199887	        -31.28826100	         -8.22459706	         27.86830509	          5.76015723	          1.69983559	        -49.21601371	         22.09720988	         -8.76211814	          7.47571314	        -27.40170513	         -6.46341830	         -2.81145668	        -34.90176875	         -8.94681941	        -18.37061747	         45.69137338	         77.64946055	        -26.64544665	         31.71183998	          3.70488486	        -10.25315741	         -5.66906932	         73.90799862	         67.94276148	          4.66610064	         19.48308119	
          0.66695330	        -17.93319999	          2.46774188	         12.95622375	          0.36926534	          0.89005686	          0.33594140	         38.60460345	        -10.68238489	        -17.41476435	       -116.64148844	        -10.32613099	        -31.10203221	         -7.90816750	         26.56399035	          5.51936455	          2.61787243	        -48.65728408	         22.05243571	         -8.63320102	          8.16951192	        -27.15546150	         -5.21938242	         -3.23078800	        -37.26315198	         -8.25560550	        -19.68957096	         44.87949080	         78.06626942	        -26.38959807	         32.24053081	          6.15176977	         -9.55792119	         -4.78775394	         76.24407047	         67.10208559	          4.64257531	         19.39144230	
          0.66953333	        -17.96626410	          2.10162156	         13.83060822	          0.38229654	          0.88944991	          0.33501125	         40.36297372	        -11.02882532	        -17.74794307	       -117.51732959	         -9.35500571	        -30.94667683	         -7.68988277	         25.59343435	          5.24601893	          3.39329406	        -48.17471909	         21.94562492	         -8.48105370	          8.72058172	        -26.94498722	         -4.22864000	         -3.66008626	        -39.10545616	         -7.66299975	        -20.92270986	         45.02395265	         78.37546220	        -26.15162828	         32.55468044	          7.83556565	         -9.06974101	         -4.13131798	         78.17958248	         66.28681548	          4.59411307	         19.36624348	
          0.66953333	        -17.96626410	          2.10162156	         13.83060822	          0.38229654	          0.88944991	          0.33501125	         40.36297372	        -11.02882532	        -17.74794307	       -117.51732959	         -9.35500571	        -30.94667683	         -7.68988277	         25.59343435	          5.24601893	          3.39329406	        -48.17471909	         21.94562492	         -8.48105370	          8.72058172	        -26.94498722	         -4.22864000	         -3.66008626	        -39.10545616	         -7.66299975	        -20.92270986	         45.02395265	         78.37546220	        -26.15162828	         32.55468044	          7.83556565	         -9.06974101	         -4.13131798	         78.17958248	         66.28681548	          4.59411307	         19.36624348	
          0.67066004	        -17.98070322	          1.94173656	         14.21245252	          0.38798727	          0.88918485	          0.33460506	         41.13085522	        -11.18011609	        -17.89344245	       -117.89981002	         -8.93091464	        -30.87883302	         -7.59455767	         25.16959187	          5.12664871	          3.73192122	        -47.96398263	         21.89898058	         -8.41461085	          8.96123427	        -26.85307296	         -3.79598211	         -3.84756111	        -39.90999165	         -7.40420841	        -21.46122246	         45.08703923	         78.51048690	        -26.04770671	         32.69186981	          8.57088046	         -8.85655239	         -3.84465195	         79.02482189	         65.93078647	          4.57294958	         19.35523914	
          0.67421996	        -18.02677232	          1.42726567	         15.41504593	          0.40595750	          0.88835251	          0.33332878	         43.56805348	        -11.66164219	        -18.32761420	       -119.05641052	         -7.60387838	        -30.65879854	         -7.29282131	         23.82720988	          4.72644997	          4.82239180	        -47.26715136	         21.73022109	         -8.21559189	          9.72041787	        -26.54432109	         -2.42233649	         -4.45849392	        -42.46999756	         -6.58067262	        -23.16983296	         45.40963545	         78.95193556	        -25.70503883	         33.11527449	         10.88451827	         -8.20456753	         -2.91164198	         81.73346761	         64.76928164	          4.49525743	         19.32649793	
